# Blender 5.0.0
# www.blender.org
mtllib ClothBall.mtl
o Sphere
v 0.000000 254.460449 -55.557026
v 0.000000 226.870544 -83.146957
v 0.000000 190.822525 -98.078522
v 0.000000 171.313507 -100.000000
v 0.000000 151.804474 -98.078522
v 0.000000 115.756477 -83.146957
v 3.806023 269.392029 -19.134171
v 7.465784 263.701447 -37.533031
v 10.838638 254.460449 -54.489510
v 13.794969 242.024185 -69.351990
v 16.221167 226.870544 -81.549309
v 18.023994 209.581848 -90.612740
v 19.134171 190.822525 -96.193970
v 19.509033 171.313507 -98.078522
v 19.134171 151.804474 -96.193970
v 18.023994 133.045151 -90.612740
v 16.221167 115.756477 -81.549309
v 13.794969 100.602814 -69.351990
v 10.838638 88.166542 -54.489510
v 7.465784 78.925552 -37.533031
v 3.806023 73.234978 -19.134171
v 7.465783 269.392029 -18.023994
v 14.644662 263.701447 -35.355343
v 21.260754 254.460449 -51.327991
v 27.059805 242.024185 -65.328148
v 31.818962 226.870544 -76.817764
v 35.355335 209.581848 -85.355339
v 37.533028 190.822525 -90.612740
v 38.268341 171.313507 -92.387947
v 37.533028 151.804474 -90.612740
v 35.355335 133.045151 -85.355339
v 31.818962 115.756477 -76.817764
v 27.059805 100.602814 -65.328148
v 21.260754 88.166542 -51.327991
v 14.644662 78.925552 -35.355343
v 7.465783 73.234978 -18.023994
v 10.838636 269.392029 -16.221165
v 21.260754 263.701447 -31.818966
v 30.865828 254.460449 -46.193970
v 39.284748 242.024185 -58.793777
v 46.193970 226.870544 -69.134155
v 51.327991 209.581848 -76.817772
v 54.489510 190.822525 -81.549309
v 55.557026 171.313507 -83.146950
v 54.489510 151.804474 -81.549309
v 51.327991 133.045151 -76.817772
v 46.193970 115.756477 -69.134155
v 39.284748 100.602814 -58.793777
v 30.865828 88.166542 -46.193970
v 21.260754 78.925552 -31.818966
v 10.838636 73.234978 -16.221165
v 13.794968 269.392029 -13.794966
v 27.059805 263.701447 -27.059803
v 39.284744 254.460449 -39.284740
v 50.000000 242.024185 -50.000000
v 58.793770 226.870544 -58.793766
v 65.328140 209.581848 -65.328148
v 69.351990 190.822525 -69.351982
v 70.710678 171.313507 -70.710663
v 69.351990 151.804474 -69.351982
v 65.328140 133.045151 -65.328148
v 58.793770 115.756477 -58.793766
v 50.000000 100.602814 -50.000000
v 39.284744 88.166542 -39.284740
v 27.059805 78.925552 -27.059803
v 13.794968 73.234978 -13.794966
v 16.221165 269.392029 -10.838635
v 31.818966 263.701447 -21.260750
v 46.193974 254.460449 -30.865822
v 58.793777 242.024185 -39.284748
v 69.134163 226.870544 -46.193962
v 76.817764 209.581848 -51.327999
v 81.549309 190.822525 -54.489498
v 83.146957 171.313507 -55.556999
v 81.549309 151.804474 -54.489498
v 76.817764 133.045151 -51.327999
v 69.134163 115.756477 -46.193962
v 58.793777 100.602814 -39.284748
v 46.193974 88.166542 -30.865822
v 31.818966 78.925552 -21.260750
v 16.221165 73.234978 -10.838635
v 0.000000 271.313507 0.000000
v 18.023991 269.392029 -7.465781
v 35.355335 263.701447 -14.644659
v 51.327991 254.460449 -21.260746
v 65.328148 242.024185 -27.059805
v 76.817764 226.870544 -31.818951
v 85.355331 209.581848 -35.355343
v 90.612732 190.822525 -37.533016
v 92.387939 171.313507 -38.268322
v 90.612732 151.804474 -37.533016
v 85.355331 133.045151 -35.355343
v 76.817764 115.756477 -31.818951
v 65.328148 100.602814 -27.059805
v 51.327991 88.166542 -21.260746
v 35.355335 78.925552 -14.644659
v 18.023991 73.234978 -7.465781
v 19.134167 269.392029 -3.806021
v 37.533024 263.701447 -7.465781
v 54.489506 254.460449 -10.838632
v 69.351990 242.024185 -13.794971
v 81.549301 226.870544 -16.221157
v 90.612732 209.581848 -18.023998
v 96.193962 190.822525 -19.134161
v 98.078506 171.313507 -19.509012
v 96.193962 151.804474 -19.134161
v 90.612732 133.045151 -18.023998
v 81.549301 115.756477 -16.221157
v 69.351990 100.602814 -13.794971
v 54.489506 88.166542 -10.838632
v 37.533024 78.925552 -7.465781
v 19.134167 73.234978 -3.806021
v 19.509026 269.392029 0.000001
v 38.268341 263.701447 0.000002
v 55.557014 254.460449 0.000005
v 70.710670 242.024185 -0.000001
v 83.146942 226.870544 0.000009
v 92.387947 209.581848 -0.000004
v 98.078514 190.822525 0.000009
v 99.999969 171.313507 0.000016
v 98.078514 151.804474 0.000009
v 92.387947 133.045151 -0.000004
v 83.146942 115.756477 0.000009
v 70.710670 100.602814 -0.000001
v 55.557014 88.166542 0.000005
v 38.268341 78.925552 0.000002
v 19.509026 73.234978 0.000001
v 19.134165 269.392029 3.806023
v 37.533024 263.701447 7.465785
v 54.489498 254.460449 10.838640
v 69.351982 242.024185 13.794966
v 81.549294 226.870544 16.221172
v 90.612732 209.581848 18.023991
v 96.193954 190.822525 19.134178
v 98.078491 171.313507 19.509043
v 96.193954 151.804474 19.134178
v 90.612732 133.045151 18.023991
v 81.549294 115.756477 16.221172
v 69.351982 100.602814 13.794966
v 54.489498 88.166542 10.838640
v 37.533024 78.925552 7.465785
v 19.134165 73.234978 3.806023
v 18.023989 269.392029 7.465782
v 35.355335 263.701447 14.644662
v 51.327980 254.460449 21.260754
v 65.328140 242.024185 27.059799
v 76.817749 226.870544 31.818966
v 85.355331 209.581848 35.355331
v 90.612724 190.822525 37.533031
v 92.387909 171.313507 38.268345
v 90.612724 151.804474 37.533031
v 85.355331 133.045151 35.355331
v 76.817749 115.756477 31.818966
v 65.328140 100.602814 27.059799
v 51.327980 88.166542 21.260754
v 35.355335 78.925552 14.644662
v 18.023989 73.234978 7.465782
v 16.221159 269.392029 10.838634
v 31.818958 263.701447 21.260752
v 46.193958 254.460449 30.865824
v 58.793770 242.024185 39.284740
v 69.134148 226.870544 46.193970
v 76.817764 209.581848 51.327984
v 81.549294 190.822525 54.489506
v 83.146912 171.313507 55.557018
v 81.549294 151.804474 54.489506
v 76.817764 133.045151 51.327984
v 69.134148 115.756477 46.193970
v 58.793770 100.602814 39.284740
v 46.193958 88.166542 30.865824
v 31.818958 78.925552 21.260752
v 16.221159 73.234978 10.838634
v 13.794962 269.392029 13.794963
v 27.059797 263.701447 27.059803
v 39.284725 254.460449 39.284740
v 49.999992 242.024185 49.999992
v 58.793755 226.870544 58.793766
v 65.328140 209.581848 65.328133
v 69.351974 190.822525 69.351982
v 70.710625 171.313507 70.710663
v 69.351974 151.804474 69.351982
v 65.328140 133.045151 65.328133
v 58.793755 115.756477 58.793766
v 49.999992 100.602814 49.999992
v 39.284725 88.166542 39.284740
v 27.059797 78.925552 27.059803
v 13.794962 73.234978 13.794963
v 10.838632 269.392029 16.221159
v 21.260744 263.701447 31.818962
v 30.865808 254.460449 46.193966
v 39.284740 242.024185 58.793770
v 46.193954 226.870544 69.134155
v 51.327991 209.581848 76.817757
v 54.489487 190.822525 81.549301
v 55.556973 171.313507 83.146935
v 54.489487 151.804474 81.549301
v 51.327991 133.045151 76.817757
v 46.193954 115.756477 69.134155
v 39.284740 100.602814 58.793770
v 30.865808 88.166542 46.193966
v 21.260744 78.925552 31.818962
v 10.838632 73.234978 16.221159
v 7.465778 269.392029 18.023985
v 14.644652 263.701447 35.355331
v 21.260735 254.460449 51.327980
v 27.059799 242.024185 65.328140
v 31.818945 226.870544 76.817749
v 35.355335 209.581848 85.355316
v 37.533005 190.822525 90.612724
v 38.268295 171.313507 92.387917
v 37.533005 151.804474 90.612724
v 35.355335 133.045151 85.355316
v 31.818945 115.756477 76.817749
v 27.059799 100.602814 65.328140
v 21.260735 88.166542 51.327980
v 14.644652 78.925552 35.355331
v 7.465778 73.234978 18.023985
v 3.806020 269.392029 19.134159
v 7.465776 263.701447 37.533016
v 10.838623 254.460449 54.489487
v 13.794966 242.024185 69.351982
v 16.221151 226.870544 81.549286
v 18.023994 209.581848 90.612724
v 19.134151 190.822525 96.193947
v 19.508991 171.313507 98.078476
v 19.134151 151.804474 96.193947
v 18.023994 133.045151 90.612724
v 16.221151 115.756477 81.549286
v 13.794966 100.602814 69.351982
v 10.838623 88.166542 54.489487
v 7.465776 78.925552 37.533016
v 3.806020 73.234978 19.134159
v -0.000001 269.392029 19.509020
v -0.000005 263.701447 38.268333
v -0.000010 254.460449 55.556995
v -0.000001 242.024185 70.710663
v -0.000010 226.870544 83.146927
v 0.000003 209.581848 92.387924
v -0.000013 190.822525 98.078499
v -0.000033 171.313507 99.999931
v -0.000013 151.804474 98.078499
v 0.000003 133.045151 92.387924
v -0.000010 115.756477 83.146927
v -0.000001 100.602814 70.710663
v -0.000010 88.166542 55.556995
v -0.000005 78.925552 38.268333
v -0.000001 73.234978 19.509020
v -3.806021 269.392029 19.134157
v -7.465786 263.701447 37.533016
v -10.838642 254.460449 54.489483
v -13.794968 242.024185 69.351974
v -16.221172 226.870544 81.549278
v -18.023987 209.581848 90.612717
v -19.134178 190.822525 96.193939
v -19.509052 171.313507 98.078453
v -19.134178 151.804474 96.193939
v -18.023987 133.045151 90.612717
v -16.221172 115.756477 81.549278
v -13.794968 100.602814 69.351974
v -10.838642 88.166542 54.489483
v -7.465786 78.925552 37.533016
v -3.806021 73.234978 19.134157
v -7.465778 269.392029 18.023983
v -14.644662 263.701447 35.355331
v -21.260750 254.460449 51.327961
v -27.059799 242.024185 65.328133
v -31.818962 226.870544 76.817741
v -35.355324 209.581848 85.355309
v -37.533028 190.822525 90.612701
v -38.268349 171.313507 92.387871
v -37.533028 151.804474 90.612701
v -35.355324 133.045151 85.355309
v -31.818962 115.756477 76.817741
v -27.059799 100.602814 65.328133
v -21.260750 88.166542 51.327961
v -14.644662 78.925552 35.355331
v -7.465778 73.234978 18.023983
v -10.838630 269.392029 16.221155
v -21.260750 263.701447 31.818953
v -30.865818 254.460449 46.193939
v -39.284740 242.024185 58.793766
v -46.193962 226.870544 69.134132
v -51.327972 209.581848 76.817749
v -54.489506 190.822525 81.549278
v -55.557014 171.313507 83.146873
v -54.489506 151.804474 81.549278
v -51.327972 133.045151 76.817749
v -46.193962 115.756477 69.134132
v -39.284740 100.602814 58.793766
v -30.865818 88.166542 46.193939
v -21.260750 78.925552 31.818953
v -10.838630 73.234978 16.221155
v -13.794958 269.392029 13.794957
v -27.059799 263.701447 27.059793
v -39.284729 254.460449 39.284714
v -49.999992 242.024185 49.999989
v -58.793758 226.870544 58.793743
v -65.328125 209.581848 65.328125
v -69.351974 190.822525 69.351952
v -70.710648 171.313507 70.710594
v -69.351974 151.804474 69.351952
v -65.328125 133.045151 65.328125
v -58.793758 115.756477 58.793743
v -49.999992 100.602814 49.999989
v -39.284729 88.166542 39.284714
v -27.059799 78.925552 27.059793
v -13.794958 73.234978 13.794957
v 0.000000 71.313499 0.000000
v -16.221155 269.392029 10.838628
v -31.818956 263.701447 21.260742
v -46.193951 254.460449 30.865795
v -58.793766 242.024185 39.284737
v -69.134148 226.870544 46.193943
v -76.817741 209.581848 51.327980
v -81.549294 190.822525 54.489471
v -83.146912 171.313507 55.556942
v -81.549294 151.804474 54.489471
v -76.817741 133.045151 51.327980
v -69.134148 115.756477 46.193943
v -58.793766 100.602814 39.284737
v -46.193951 88.166542 30.865795
v -31.818956 78.925552 21.260742
v -16.221155 73.234978 10.838628
v -18.023981 269.392029 7.465775
v -35.355328 263.701447 14.644651
v -51.327961 254.460449 21.260723
v -65.328133 242.024185 27.059797
v -76.817741 226.870544 31.818932
v -85.355309 209.581848 35.355328
v -90.612717 190.822525 37.532990
v -92.387886 171.313507 38.268269
v -90.612717 151.804474 37.532990
v -85.355309 133.045151 35.355328
v -76.817741 115.756477 31.818932
v -65.328133 100.602814 27.059797
v -51.327961 88.166542 21.260723
v -35.355328 78.925552 14.644651
v -18.023981 73.234978 7.465775
v -19.134155 269.392029 3.806018
v -37.533012 263.701447 7.465775
v -54.489471 254.460449 10.838615
v -69.351974 242.024185 13.794963
v -81.549278 226.870544 16.221144
v -90.612709 209.581848 18.023989
v -96.193939 190.822525 19.134138
v -98.078445 171.313507 19.508970
v -96.193939 151.804474 19.134138
v -90.612709 133.045151 18.023989
v -81.549278 115.756477 16.221144
v -69.351974 100.602814 13.794963
v -54.489471 88.166542 10.838615
v -37.533012 78.925552 7.465775
v -19.134155 73.234978 3.806018
v -19.509014 269.392029 -0.000002
v -38.268326 263.701447 -0.000005
v -55.556976 254.460449 -0.000015
v -70.710663 242.024185 -0.000003
v -83.146919 226.870544 -0.000016
v -92.387917 209.581848 -0.000001
v -98.078484 190.822525 -0.000027
v -99.999908 171.313507 -0.000045
v -98.078484 151.804474 -0.000027
v -92.387917 133.045151 -0.000001
v -83.146919 115.756477 -0.000016
v -70.710663 100.602814 -0.000003
v -55.556976 88.166542 -0.000015
v -38.268326 78.925552 -0.000005
v -19.509014 73.234978 -0.000002
v -19.134153 269.392029 -3.806022
v -37.533009 263.701447 -7.465785
v -54.489464 254.460449 -10.838643
v -69.351974 242.024185 -13.794969
v -81.549263 226.870544 -16.221176
v -90.612701 209.581848 -18.023991
v -96.193924 190.822525 -19.134190
v -98.078423 171.313507 -19.509058
v -96.193924 151.804474 -19.134190
v -90.612701 133.045151 -18.023991
v -81.549263 115.756477 -16.221176
v -69.351974 100.602814 -13.794969
v -54.489464 88.166542 -10.838643
v -37.533009 78.925552 -7.465785
v -19.134153 73.234978 -3.806022
v -18.023977 269.392029 -7.465778
v -35.355320 263.701447 -14.644659
v -51.327942 254.460449 -21.260748
v -65.328125 242.024185 -27.059799
v -76.817719 226.870544 -31.818962
v -85.355301 209.581848 -35.355324
v -90.612686 190.822525 -37.533031
v -92.387840 171.313507 -38.268349
v -90.612686 151.804474 -37.533031
v -85.355301 133.045151 -35.355324
v -76.817719 115.756477 -31.818962
v -65.328125 100.602814 -27.059799
v -51.327942 88.166542 -21.260748
v -35.355320 78.925552 -14.644659
v -18.023977 73.234978 -7.465778
v -16.221151 269.392029 -10.838630
v -31.818945 263.701447 -21.260746
v -46.193920 254.460449 -30.865816
v -58.793758 242.024185 -39.284740
v -69.134117 226.870544 -46.193962
v -76.817741 209.581848 -51.327972
v -81.549255 190.822525 -54.489506
v -83.146843 171.313507 -55.557007
v -81.549255 151.804474 -54.489506
v -76.817741 133.045151 -51.327972
v -69.134117 115.756477 -46.193962
v -58.793758 100.602814 -39.284740
v -46.193920 88.166542 -30.865816
v -31.818945 78.925552 -21.260746
v -16.221151 73.234978 -10.838630
v -13.794954 269.392029 -13.794957
v -27.059788 263.701447 -27.059793
v -39.284695 254.460449 -39.284725
v -49.999981 242.024185 -49.999989
v -58.793724 226.870544 -58.793755
v -65.328117 209.581848 -65.328117
v -69.351936 190.822525 -69.351974
v -70.710571 171.313507 -70.710632
v -69.351936 151.804474 -69.351974
v -65.328117 133.045151 -65.328117
v -58.793724 115.756477 -58.793755
v -49.999981 100.602814 -49.999989
v -39.284695 88.166542 -39.284725
v -27.059788 78.925552 -27.059793
v -13.794954 73.234978 -13.794957
v -10.838625 269.392029 -16.221151
v -21.260736 263.701447 -31.818951
v -30.865780 254.460449 -46.193943
v -39.284729 242.024185 -58.793766
v -46.193928 226.870544 -69.134132
v -51.327969 209.581848 -76.817741
v -54.489456 190.822525 -81.549278
v -55.556923 171.313507 -83.146896
v -54.489456 151.804474 -81.549278
v -51.327969 133.045151 -76.817741
v -46.193928 115.756477 -69.134132
v -39.284729 100.602814 -58.793766
v -30.865780 88.166542 -46.193943
v -21.260736 78.925552 -31.818951
v -10.838625 73.234978 -16.221151
v -7.465774 269.392029 -18.023977
v -14.644649 263.701447 -35.355324
v -21.260710 254.460449 -51.327950
v -27.059790 242.024185 -65.328133
v -31.818920 226.870544 -76.817726
v -35.355316 209.581848 -85.355301
v -37.532978 190.822525 -90.612701
v -38.268257 171.313507 -92.387863
v -37.532978 151.804474 -90.612701
v -35.355316 133.045151 -85.355301
v -31.818920 115.756477 -76.817726
v -27.059790 100.602814 -65.328133
v -21.260710 88.166542 -51.327950
v -14.644649 78.925552 -35.355324
v -7.465774 73.234978 -18.023977
v -3.806018 269.392029 -19.134150
v -7.465773 263.701447 -37.533009
v -10.838604 254.460449 -54.489452
v -13.794957 242.024185 -69.351974
v -16.221132 226.870544 -81.549255
v -18.023981 209.581848 -90.612701
v -19.134132 190.822525 -96.193924
v -19.508963 171.313507 -98.078415
v -19.134132 151.804474 -96.193924
v -18.023981 133.045151 -90.612701
v -16.221132 115.756477 -81.549255
v -13.794957 100.602814 -69.351974
v -10.838604 88.166542 -54.489452
v -7.465773 78.925552 -37.533009
v -3.806018 73.234978 -19.134150
v 0.000001 269.392029 -19.509010
v 0.000007 263.701447 -38.268322
v 0.000009 242.024185 -70.710663
v 0.000006 209.581848 -92.387901
v 0.000006 133.045151 -92.387901
v 0.000009 100.602814 -70.710663
v 0.000022 88.166542 -55.556953
v 0.000007 78.925552 -38.268322
v 0.000001 73.234978 -19.509010
vn -0.0000 0.8286 -0.5598
vn -0.0000 0.5528 -0.8333
vn -0.0000 0.1939 -0.9810
vn -0.0000 -0.0000 -1.0000
vn -0.0000 -0.1939 -0.9810
vn -0.0000 -0.5528 -0.8333
vn 0.0392 0.9796 -0.1971
vn 0.0757 0.9217 -0.3804
vn 0.1092 0.8286 -0.5490
vn 0.1385 0.7041 -0.6965
vn 0.1626 0.5528 -0.8173
vn 0.1804 0.3805 -0.9070
vn 0.1914 0.1939 -0.9622
vn 0.1951 -0.0000 -0.9808
vn 0.1914 -0.1939 -0.9622
vn 0.1804 -0.3805 -0.9070
vn 0.1626 -0.5528 -0.8173
vn 0.1385 -0.7041 -0.6965
vn 0.1092 -0.8286 -0.5490
vn 0.0757 -0.9217 -0.3804
vn 0.0392 -0.9796 -0.1971
vn 0.0769 0.9796 -0.1857
vn 0.1484 0.9217 -0.3584
vn 0.2142 0.8286 -0.5172
vn 0.2718 0.7041 -0.6561
vn 0.3189 0.5528 -0.7699
vn 0.3539 0.3805 -0.8544
vn 0.3754 0.1939 -0.9063
vn 0.3827 -0.0000 -0.9239
vn 0.3754 -0.1939 -0.9063
vn 0.3539 -0.3805 -0.8544
vn 0.3189 -0.5528 -0.7699
vn 0.2718 -0.7041 -0.6561
vn 0.2142 -0.8286 -0.5172
vn 0.1484 -0.9217 -0.3584
vn 0.0769 -0.9796 -0.1857
vn 0.1117 0.9796 -0.1671
vn 0.2155 0.9217 -0.3225
vn 0.3110 0.8286 -0.4654
vn 0.3945 0.7041 -0.5905
vn 0.4630 0.5528 -0.6929
vn 0.5138 0.3805 -0.7689
vn 0.5450 0.1939 -0.8157
vn 0.5556 -0.0000 -0.8315
vn 0.5450 -0.1939 -0.8157
vn 0.5138 -0.3805 -0.7689
vn 0.4630 -0.5528 -0.6929
vn 0.3945 -0.7041 -0.5905
vn 0.3110 -0.8286 -0.4654
vn 0.2155 -0.9217 -0.3225
vn 0.1117 -0.9796 -0.1671
vn 0.1421 0.9796 -0.1421
vn 0.2743 0.9217 -0.2743
vn 0.3958 0.8286 -0.3958
vn 0.5021 0.7041 -0.5021
vn 0.5893 0.5528 -0.5893
vn 0.6539 0.3805 -0.6539
vn 0.6937 0.1939 -0.6937
vn 0.7071 -0.0000 -0.7071
vn 0.6937 -0.1939 -0.6937
vn 0.6539 -0.3805 -0.6539
vn 0.5893 -0.5528 -0.5893
vn 0.5021 -0.7041 -0.5021
vn 0.3958 -0.8286 -0.3958
vn 0.2743 -0.9217 -0.2743
vn 0.1421 -0.9796 -0.1421
vn 0.1671 0.9796 -0.1117
vn 0.3225 0.9217 -0.2155
vn 0.4654 0.8286 -0.3110
vn 0.5905 0.7041 -0.3945
vn 0.6929 0.5528 -0.4630
vn 0.7689 0.3805 -0.5138
vn 0.8157 0.1939 -0.5450
vn 0.8315 -0.0000 -0.5556
vn 0.8157 -0.1939 -0.5450
vn 0.7689 -0.3805 -0.5138
vn 0.6929 -0.5528 -0.4630
vn 0.5905 -0.7041 -0.3945
vn 0.4654 -0.8286 -0.3110
vn 0.3225 -0.9217 -0.2155
vn 0.1671 -0.9796 -0.1117
vn -0.0000 1.0000 -0.0000
vn 0.1857 0.9796 -0.0769
vn 0.3584 0.9217 -0.1484
vn 0.5172 0.8286 -0.2142
vn 0.6561 0.7041 -0.2718
vn 0.7699 0.5528 -0.3189
vn 0.8544 0.3805 -0.3539
vn 0.9063 0.1939 -0.3754
vn 0.9239 -0.0000 -0.3827
vn 0.9063 -0.1939 -0.3754
vn 0.8544 -0.3805 -0.3539
vn 0.7699 -0.5528 -0.3189
vn 0.6561 -0.7041 -0.2718
vn 0.5172 -0.8286 -0.2142
vn 0.3584 -0.9217 -0.1484
vn 0.1857 -0.9796 -0.0769
vn 0.1971 0.9796 -0.0392
vn 0.3804 0.9217 -0.0757
vn 0.5490 0.8286 -0.1092
vn 0.6965 0.7041 -0.1385
vn 0.8173 0.5528 -0.1626
vn 0.9070 0.3805 -0.1804
vn 0.9622 0.1939 -0.1914
vn 0.9808 -0.0000 -0.1951
vn 0.9622 -0.1939 -0.1914
vn 0.9070 -0.3805 -0.1804
vn 0.8173 -0.5528 -0.1626
vn 0.6965 -0.7041 -0.1385
vn 0.5490 -0.8286 -0.1092
vn 0.3804 -0.9217 -0.0757
vn 0.1971 -0.9796 -0.0392
vn 0.2010 0.9796 -0.0000
vn 0.3879 0.9217 -0.0000
vn 0.5598 0.8286 -0.0000
vn 0.7101 0.7041 -0.0000
vn 0.8333 0.5528 -0.0000
vn 0.9248 0.3805 -0.0000
vn 0.9810 0.1939 -0.0000
vn 1.0000 -0.0000 -0.0000
vn 0.9810 -0.1939 -0.0000
vn 0.9248 -0.3805 -0.0000
vn 0.8333 -0.5528 -0.0000
vn 0.7101 -0.7041 -0.0000
vn 0.5598 -0.8286 -0.0000
vn 0.3879 -0.9217 -0.0000
vn 0.2010 -0.9796 -0.0000
vn 0.1971 0.9796 0.0392
vn 0.3804 0.9217 0.0757
vn 0.5490 0.8286 0.1092
vn 0.6965 0.7041 0.1385
vn 0.8173 0.5528 0.1626
vn 0.9070 0.3805 0.1804
vn 0.9622 0.1939 0.1914
vn 0.9808 -0.0000 0.1951
vn 0.9622 -0.1939 0.1914
vn 0.9070 -0.3805 0.1804
vn 0.8173 -0.5528 0.1626
vn 0.6965 -0.7041 0.1385
vn 0.5490 -0.8286 0.1092
vn 0.3804 -0.9217 0.0757
vn 0.1971 -0.9796 0.0392
vn 0.1857 0.9796 0.0769
vn 0.3584 0.9217 0.1484
vn 0.5172 0.8286 0.2142
vn 0.6561 0.7041 0.2718
vn 0.7699 0.5528 0.3189
vn 0.8544 0.3805 0.3539
vn 0.9063 0.1939 0.3754
vn 0.9239 -0.0000 0.3827
vn 0.9063 -0.1939 0.3754
vn 0.8544 -0.3805 0.3539
vn 0.7699 -0.5528 0.3189
vn 0.6561 -0.7041 0.2718
vn 0.5172 -0.8286 0.2142
vn 0.3584 -0.9217 0.1484
vn 0.1857 -0.9796 0.0769
vn 0.1671 0.9796 0.1117
vn 0.3225 0.9217 0.2155
vn 0.4654 0.8286 0.3110
vn 0.5905 0.7041 0.3945
vn 0.6929 0.5528 0.4630
vn 0.7689 0.3805 0.5138
vn 0.8157 0.1939 0.5450
vn 0.8315 -0.0000 0.5556
vn 0.8157 -0.1939 0.5450
vn 0.7689 -0.3805 0.5138
vn 0.6929 -0.5528 0.4630
vn 0.5905 -0.7041 0.3945
vn 0.4654 -0.8286 0.3110
vn 0.3225 -0.9217 0.2155
vn 0.1671 -0.9796 0.1117
vn 0.1421 0.9796 0.1421
vn 0.2743 0.9217 0.2743
vn 0.3958 0.8286 0.3958
vn 0.5021 0.7041 0.5021
vn 0.5893 0.5528 0.5893
vn 0.6539 0.3805 0.6539
vn 0.6937 0.1939 0.6937
vn 0.7071 -0.0000 0.7071
vn 0.6937 -0.1939 0.6937
vn 0.6539 -0.3805 0.6539
vn 0.5893 -0.5528 0.5893
vn 0.5021 -0.7041 0.5021
vn 0.3958 -0.8286 0.3958
vn 0.2743 -0.9217 0.2743
vn 0.1421 -0.9796 0.1421
vn 0.1117 0.9796 0.1671
vn 0.2155 0.9217 0.3225
vn 0.3110 0.8286 0.4654
vn 0.3945 0.7041 0.5905
vn 0.4630 0.5528 0.6929
vn 0.5138 0.3805 0.7689
vn 0.5450 0.1939 0.8157
vn 0.5556 -0.0000 0.8315
vn 0.5450 -0.1939 0.8157
vn 0.5138 -0.3805 0.7689
vn 0.4630 -0.5528 0.6929
vn 0.3945 -0.7041 0.5905
vn 0.3110 -0.8286 0.4654
vn 0.2155 -0.9217 0.3225
vn 0.1117 -0.9796 0.1671
vn 0.0769 0.9796 0.1857
vn 0.1484 0.9217 0.3584
vn 0.2142 0.8286 0.5172
vn 0.2718 0.7041 0.6561
vn 0.3189 0.5528 0.7699
vn 0.3539 0.3805 0.8544
vn 0.3754 0.1939 0.9063
vn 0.3827 -0.0000 0.9239
vn 0.3754 -0.1939 0.9063
vn 0.3539 -0.3805 0.8544
vn 0.3189 -0.5528 0.7699
vn 0.2718 -0.7041 0.6561
vn 0.2142 -0.8286 0.5172
vn 0.1484 -0.9217 0.3584
vn 0.0769 -0.9796 0.1857
vn 0.0392 0.9796 0.1971
vn 0.0757 0.9217 0.3804
vn 0.1092 0.8286 0.5490
vn 0.1385 0.7041 0.6965
vn 0.1626 0.5528 0.8173
vn 0.1804 0.3805 0.9070
vn 0.1914 0.1939 0.9622
vn 0.1951 -0.0000 0.9808
vn 0.1914 -0.1939 0.9622
vn 0.1804 -0.3805 0.9070
vn 0.1626 -0.5528 0.8173
vn 0.1385 -0.7041 0.6965
vn 0.1092 -0.8286 0.5490
vn 0.0757 -0.9217 0.3804
vn 0.0392 -0.9796 0.1971
vn -0.0000 0.9796 0.2010
vn -0.0000 0.9217 0.3879
vn -0.0000 0.8286 0.5598
vn -0.0000 0.7041 0.7101
vn -0.0000 0.5528 0.8333
vn -0.0000 0.3805 0.9248
vn -0.0000 0.1939 0.9810
vn -0.0000 -0.0000 1.0000
vn -0.0000 -0.1939 0.9810
vn -0.0000 -0.3805 0.9248
vn -0.0000 -0.5528 0.8333
vn -0.0000 -0.7041 0.7101
vn -0.0000 -0.8286 0.5598
vn -0.0000 -0.9217 0.3879
vn -0.0000 -0.9796 0.2010
vn -0.0392 0.9796 0.1971
vn -0.0757 0.9217 0.3804
vn -0.1092 0.8286 0.5490
vn -0.1385 0.7041 0.6965
vn -0.1626 0.5528 0.8173
vn -0.1804 0.3805 0.9070
vn -0.1914 0.1939 0.9622
vn -0.1951 -0.0000 0.9808
vn -0.1914 -0.1939 0.9622
vn -0.1804 -0.3805 0.9070
vn -0.1626 -0.5528 0.8173
vn -0.1385 -0.7041 0.6965
vn -0.1092 -0.8286 0.5490
vn -0.0757 -0.9217 0.3804
vn -0.0392 -0.9796 0.1971
vn -0.0769 0.9796 0.1857
vn -0.1484 0.9217 0.3584
vn -0.2142 0.8286 0.5172
vn -0.2718 0.7041 0.6561
vn -0.3189 0.5528 0.7699
vn -0.3539 0.3805 0.8544
vn -0.3754 0.1939 0.9063
vn -0.3827 -0.0000 0.9239
vn -0.3754 -0.1939 0.9063
vn -0.3539 -0.3805 0.8544
vn -0.3189 -0.5528 0.7699
vn -0.2718 -0.7041 0.6561
vn -0.2142 -0.8286 0.5172
vn -0.1484 -0.9217 0.3584
vn -0.0769 -0.9796 0.1857
vn -0.1117 0.9796 0.1671
vn -0.2155 0.9217 0.3225
vn -0.3110 0.8286 0.4654
vn -0.3945 0.7041 0.5905
vn -0.4630 0.5528 0.6929
vn -0.5138 0.3805 0.7689
vn -0.5450 0.1939 0.8157
vn -0.5556 -0.0000 0.8315
vn -0.5450 -0.1939 0.8157
vn -0.5138 -0.3805 0.7689
vn -0.4630 -0.5528 0.6929
vn -0.3945 -0.7041 0.5905
vn -0.3110 -0.8286 0.4654
vn -0.2155 -0.9217 0.3225
vn -0.1117 -0.9796 0.1671
vn -0.1421 0.9796 0.1421
vn -0.2743 0.9217 0.2743
vn -0.3958 0.8286 0.3958
vn -0.5021 0.7041 0.5021
vn -0.5893 0.5528 0.5893
vn -0.6539 0.3805 0.6539
vn -0.6937 0.1939 0.6937
vn -0.7071 -0.0000 0.7071
vn -0.6937 -0.1939 0.6937
vn -0.6539 -0.3805 0.6539
vn -0.5893 -0.5528 0.5893
vn -0.5021 -0.7041 0.5021
vn -0.3958 -0.8286 0.3958
vn -0.2743 -0.9217 0.2743
vn -0.1421 -0.9796 0.1421
vn -0.0000 -1.0000 -0.0000
vn -0.1671 0.9796 0.1117
vn -0.3225 0.9217 0.2155
vn -0.4654 0.8286 0.3110
vn -0.5905 0.7041 0.3945
vn -0.6929 0.5528 0.4630
vn -0.7689 0.3805 0.5138
vn -0.8157 0.1939 0.5450
vn -0.8315 -0.0000 0.5556
vn -0.8157 -0.1939 0.5450
vn -0.7689 -0.3805 0.5138
vn -0.6929 -0.5528 0.4630
vn -0.5905 -0.7041 0.3945
vn -0.4654 -0.8286 0.3110
vn -0.3225 -0.9217 0.2155
vn -0.1671 -0.9796 0.1117
vn -0.1857 0.9796 0.0769
vn -0.3584 0.9217 0.1484
vn -0.5172 0.8286 0.2142
vn -0.6561 0.7041 0.2718
vn -0.7699 0.5528 0.3189
vn -0.8544 0.3805 0.3539
vn -0.9063 0.1939 0.3754
vn -0.9239 -0.0000 0.3827
vn -0.9063 -0.1939 0.3754
vn -0.8544 -0.3805 0.3539
vn -0.7699 -0.5528 0.3189
vn -0.6561 -0.7041 0.2718
vn -0.5172 -0.8286 0.2142
vn -0.3584 -0.9217 0.1484
vn -0.1857 -0.9796 0.0769
vn -0.1971 0.9796 0.0392
vn -0.3804 0.9217 0.0757
vn -0.5490 0.8286 0.1092
vn -0.6965 0.7041 0.1385
vn -0.8173 0.5528 0.1626
vn -0.9070 0.3805 0.1804
vn -0.9622 0.1939 0.1914
vn -0.9808 -0.0000 0.1951
vn -0.9622 -0.1939 0.1914
vn -0.9070 -0.3805 0.1804
vn -0.8173 -0.5528 0.1626
vn -0.6965 -0.7041 0.1385
vn -0.5490 -0.8286 0.1092
vn -0.3804 -0.9217 0.0757
vn -0.1971 -0.9796 0.0392
vn -0.2010 0.9796 -0.0000
vn -0.3879 0.9217 -0.0000
vn -0.5598 0.8286 -0.0000
vn -0.7101 0.7041 -0.0000
vn -0.8333 0.5528 -0.0000
vn -0.9248 0.3805 -0.0000
vn -0.9810 0.1939 -0.0000
vn -1.0000 -0.0000 -0.0000
vn -0.9810 -0.1939 -0.0000
vn -0.9248 -0.3805 -0.0000
vn -0.8333 -0.5528 -0.0000
vn -0.7101 -0.7041 -0.0000
vn -0.5598 -0.8286 -0.0000
vn -0.3879 -0.9217 -0.0000
vn -0.2010 -0.9796 -0.0000
vn -0.1971 0.9796 -0.0392
vn -0.3804 0.9217 -0.0757
vn -0.5490 0.8286 -0.1092
vn -0.6965 0.7041 -0.1385
vn -0.8173 0.5528 -0.1626
vn -0.9070 0.3805 -0.1804
vn -0.9622 0.1939 -0.1914
vn -0.9808 -0.0000 -0.1951
vn -0.9622 -0.1939 -0.1914
vn -0.9070 -0.3805 -0.1804
vn -0.8173 -0.5528 -0.1626
vn -0.6965 -0.7041 -0.1385
vn -0.5490 -0.8286 -0.1092
vn -0.3804 -0.9217 -0.0757
vn -0.1971 -0.9796 -0.0392
vn -0.1857 0.9796 -0.0769
vn -0.3584 0.9217 -0.1484
vn -0.5172 0.8286 -0.2142
vn -0.6561 0.7041 -0.2718
vn -0.7699 0.5528 -0.3189
vn -0.8544 0.3805 -0.3539
vn -0.9063 0.1939 -0.3754
vn -0.9239 -0.0000 -0.3827
vn -0.9063 -0.1939 -0.3754
vn -0.8544 -0.3805 -0.3539
vn -0.7699 -0.5528 -0.3189
vn -0.6561 -0.7041 -0.2718
vn -0.5172 -0.8286 -0.2142
vn -0.3584 -0.9217 -0.1484
vn -0.1857 -0.9796 -0.0769
vn -0.1671 0.9796 -0.1117
vn -0.3225 0.9217 -0.2155
vn -0.4654 0.8286 -0.3110
vn -0.5905 0.7041 -0.3945
vn -0.6929 0.5528 -0.4630
vn -0.7689 0.3805 -0.5138
vn -0.8157 0.1939 -0.5450
vn -0.8315 -0.0000 -0.5556
vn -0.8157 -0.1939 -0.5450
vn -0.7689 -0.3805 -0.5138
vn -0.6929 -0.5528 -0.4630
vn -0.5905 -0.7041 -0.3945
vn -0.4654 -0.8286 -0.3110
vn -0.3225 -0.9217 -0.2155
vn -0.1671 -0.9796 -0.1117
vn -0.1421 0.9796 -0.1421
vn -0.2743 0.9217 -0.2743
vn -0.3958 0.8286 -0.3958
vn -0.5021 0.7041 -0.5021
vn -0.5893 0.5528 -0.5893
vn -0.6539 0.3805 -0.6539
vn -0.6937 0.1939 -0.6937
vn -0.7071 -0.0000 -0.7071
vn -0.6937 -0.1939 -0.6937
vn -0.6539 -0.3805 -0.6539
vn -0.5893 -0.5528 -0.5893
vn -0.5021 -0.7041 -0.5021
vn -0.3958 -0.8286 -0.3958
vn -0.2743 -0.9217 -0.2743
vn -0.1421 -0.9796 -0.1421
vn -0.1117 0.9796 -0.1671
vn -0.2155 0.9217 -0.3225
vn -0.3110 0.8286 -0.4654
vn -0.3945 0.7041 -0.5905
vn -0.4630 0.5528 -0.6929
vn -0.5138 0.3805 -0.7689
vn -0.5450 0.1939 -0.8157
vn -0.5556 -0.0000 -0.8315
vn -0.5450 -0.1939 -0.8157
vn -0.5138 -0.3805 -0.7689
vn -0.4630 -0.5528 -0.6929
vn -0.3945 -0.7041 -0.5905
vn -0.3110 -0.8286 -0.4654
vn -0.2155 -0.9217 -0.3225
vn -0.1117 -0.9796 -0.1671
vn -0.0769 0.9796 -0.1857
vn -0.1484 0.9217 -0.3584
vn -0.2142 0.8286 -0.5172
vn -0.2718 0.7041 -0.6561
vn -0.3189 0.5528 -0.7699
vn -0.3539 0.3805 -0.8544
vn -0.3754 0.1939 -0.9063
vn -0.3827 -0.0000 -0.9239
vn -0.3754 -0.1939 -0.9063
vn -0.3539 -0.3805 -0.8544
vn -0.3189 -0.5528 -0.7699
vn -0.2718 -0.7041 -0.6561
vn -0.2142 -0.8286 -0.5172
vn -0.1484 -0.9217 -0.3584
vn -0.0769 -0.9796 -0.1857
vn -0.0392 0.9796 -0.1971
vn -0.0757 0.9217 -0.3804
vn -0.1092 0.8286 -0.5490
vn -0.1385 0.7041 -0.6965
vn -0.1626 0.5528 -0.8173
vn -0.1804 0.3805 -0.9070
vn -0.1914 0.1939 -0.9622
vn -0.1951 -0.0000 -0.9808
vn -0.1914 -0.1939 -0.9622
vn -0.1804 -0.3805 -0.9070
vn -0.1626 -0.5528 -0.8173
vn -0.1385 -0.7041 -0.6965
vn -0.1092 -0.8286 -0.5490
vn -0.0757 -0.9217 -0.3804
vn -0.0392 -0.9796 -0.1971
vn -0.0000 0.9796 -0.2010
vn -0.0000 0.9217 -0.3879
vn -0.0000 0.7041 -0.7101
vn -0.0000 0.3805 -0.9248
vn -0.0000 -0.3805 -0.9248
vn -0.0000 -0.7041 -0.7101
vn -0.0000 -0.8286 -0.5598
vn -0.0000 -0.9217 -0.3879
vn -0.0000 -0.9796 -0.2010
vt 0.750000 0.125000
vt 0.750000 0.187500
vt 0.718750 0.187500
vt 0.718750 0.125000
vt 0.750000 0.562500
vt 0.750000 0.625000
vt 0.718750 0.625000
vt 0.718750 0.562500
vt 0.750000 0.062500
vt 0.718750 0.062500
vt 0.750000 0.500000
vt 0.718750 0.500000
vt 0.750000 0.937500
vt 0.734375 1.000000
vt 0.718750 0.937500
vt 0.734375 0.000000
vt 0.750000 0.437500
vt 0.718750 0.437500
vt 0.750000 0.875000
vt 0.718750 0.875000
vt 0.750000 0.375000
vt 0.718750 0.375000
vt 0.750000 0.812500
vt 0.718750 0.812500
vt 0.750000 0.312500
vt 0.718750 0.312500
vt 0.750000 0.750000
vt 0.718750 0.750000
vt 0.750000 0.250000
vt 0.718750 0.250000
vt 0.750000 0.687500
vt 0.718750 0.687500
vt 0.687500 0.250000
vt 0.687500 0.187500
vt 0.687500 0.687500
vt 0.687500 0.625000
vt 0.687500 0.125000
vt 0.687500 0.562500
vt 0.687500 0.062500
vt 0.687500 0.500000
vt 0.703125 1.000000
vt 0.687500 0.937500
vt 0.703125 0.000000
vt 0.687500 0.437500
vt 0.687500 0.875000
vt 0.687500 0.375000
vt 0.687500 0.812500
vt 0.687500 0.312500
vt 0.687500 0.750000
vt 0.656250 0.937500
vt 0.656250 0.875000
vt 0.656250 0.437500
vt 0.656250 0.375000
vt 0.656250 0.812500
vt 0.656250 0.312500
vt 0.656250 0.750000
vt 0.656250 0.250000
vt 0.656250 0.687500
vt 0.656250 0.187500
vt 0.656250 0.625000
vt 0.656250 0.125000
vt 0.656250 0.562500
vt 0.656250 0.062500
vt 0.656250 0.500000
vt 0.671875 1.000000
vt 0.671875 0.000000
vt 0.625000 0.687500
vt 0.625000 0.625000
vt 0.625000 0.187500
vt 0.625000 0.125000
vt 0.625000 0.562500
vt 0.625000 0.062500
vt 0.625000 0.500000
vt 0.640625 1.000000
vt 0.625000 0.937500
vt 0.640625 0.000000
vt 0.625000 0.437500
vt 0.625000 0.875000
vt 0.625000 0.375000
vt 0.625000 0.812500
vt 0.625000 0.312500
vt 0.625000 0.750000
vt 0.625000 0.250000
vt 0.593750 0.437500
vt 0.593750 0.375000
vt 0.593750 0.875000
vt 0.593750 0.812500
vt 0.593750 0.312500
vt 0.593750 0.750000
vt 0.593750 0.250000
vt 0.593750 0.687500
vt 0.593750 0.187500
vt 0.593750 0.625000
vt 0.593750 0.125000
vt 0.593750 0.562500
vt 0.593750 0.062500
vt 0.593750 0.500000
vt 0.609375 1.000000
vt 0.593750 0.937500
vt 0.609375 0.000000
vt 0.562500 0.187500
vt 0.562500 0.125000
vt 0.562500 0.625000
vt 0.562500 0.562500
vt 0.562500 0.062500
vt 0.562500 0.500000
vt 0.578125 1.000000
vt 0.562500 0.937500
vt 0.578125 0.000000
vt 0.562500 0.437500
vt 0.562500 0.875000
vt 0.562500 0.375000
vt 0.562500 0.812500
vt 0.562500 0.312500
vt 0.562500 0.750000
vt 0.562500 0.250000
vt 0.562500 0.687500
vt 0.531250 0.375000
vt 0.531250 0.312500
vt 0.531250 0.812500
vt 0.531250 0.750000
vt 0.531250 0.250000
vt 0.531250 0.687500
vt 0.531250 0.187500
vt 0.531250 0.625000
vt 0.531250 0.125000
vt 0.531250 0.562500
vt 0.531250 0.062500
vt 0.531250 0.500000
vt 0.546875 1.000000
vt 0.531250 0.937500
vt 0.546875 0.000000
vt 0.531250 0.437500
vt 0.531250 0.875000
vt 0.500000 0.125000
vt 0.500000 0.062500
vt 0.500000 0.562500
vt 0.500000 0.500000
vt 0.515625 1.000000
vt 0.500000 0.937500
vt 0.515625 0.000000
vt 0.500000 0.437500
vt 0.500000 0.875000
vt 0.500000 0.375000
vt 0.500000 0.812500
vt 0.500000 0.312500
vt 0.500000 0.750000
vt 0.500000 0.250000
vt 0.500000 0.687500
vt 0.500000 0.187500
vt 0.500000 0.625000
vt 0.468750 0.812500
vt 0.468750 0.750000
vt 0.468750 0.312500
vt 0.468750 0.250000
vt 0.468750 0.687500
vt 0.468750 0.187500
vt 0.468750 0.625000
vt 0.468750 0.125000
vt 0.468750 0.562500
vt 0.468750 0.062500
vt 0.468750 0.500000
vt 0.484375 1.000000
vt 0.468750 0.937500
vt 0.484375 0.000000
vt 0.468750 0.437500
vt 0.468750 0.875000
vt 0.468750 0.375000
vt 0.437500 0.562500
vt 0.437500 0.500000
vt 0.453125 1.000000
vt 0.437500 0.937500
vt 0.453125 0.000000
vt 0.437500 0.062500
vt 0.437500 0.437500
vt 0.437500 0.875000
vt 0.437500 0.375000
vt 0.437500 0.812500
vt 0.437500 0.312500
vt 0.437500 0.750000
vt 0.437500 0.250000
vt 0.437500 0.687500
vt 0.437500 0.187500
vt 0.437500 0.625000
vt 0.437500 0.125000
vt 0.406250 0.312500
vt 0.406250 0.250000
vt 0.406250 0.750000
vt 0.406250 0.687500
vt 0.406250 0.187500
vt 0.406250 0.625000
vt 0.406250 0.125000
vt 0.406250 0.562500
vt 0.406250 0.062500
vt 0.406250 0.500000
vt 0.421875 1.000000
vt 0.406250 0.937500
vt 0.421875 0.000000
vt 0.406250 0.437500
vt 0.406250 0.875000
vt 0.406250 0.375000
vt 0.406250 0.812500
vt 0.390625 1.000000
vt 0.375000 0.937500
vt 0.390625 0.000000
vt 0.375000 0.062500
vt 0.375000 0.500000
vt 0.375000 0.437500
vt 0.375000 0.875000
vt 0.375000 0.375000
vt 0.375000 0.812500
vt 0.375000 0.312500
vt 0.375000 0.750000
vt 0.375000 0.250000
vt 0.375000 0.687500
vt 0.375000 0.187500
vt 0.375000 0.625000
vt 0.375000 0.125000
vt 0.375000 0.562500
vt 0.343750 0.750000
vt 0.343750 0.687500
vt 0.343750 0.250000
vt 0.343750 0.187500
vt 0.343750 0.625000
vt 0.343750 0.125000
vt 0.343750 0.562500
vt 0.343750 0.062500
vt 0.343750 0.500000
vt 0.359375 1.000000
vt 0.343750 0.937500
vt 0.359375 0.000000
vt 0.343750 0.437500
vt 0.343750 0.875000
vt 0.343750 0.375000
vt 0.343750 0.812500
vt 0.343750 0.312500
vt 0.312500 0.500000
vt 0.312500 0.437500
vt 0.312500 0.937500
vt 0.312500 0.875000
vt 0.312500 0.375000
vt 0.312500 0.812500
vt 0.312500 0.312500
vt 0.312500 0.750000
vt 0.312500 0.250000
vt 0.312500 0.687500
vt 0.312500 0.187500
vt 0.312500 0.625000
vt 0.312500 0.125000
vt 0.312500 0.562500
vt 0.312500 0.062500
vt 0.328125 1.000000
vt 0.328125 0.000000
vt 0.281250 0.250000
vt 0.281250 0.187500
vt 0.281250 0.687500
vt 0.281250 0.625000
vt 0.281250 0.125000
vt 0.281250 0.562500
vt 0.281250 0.062500
vt 0.281250 0.500000
vt 0.296875 1.000000
vt 0.281250 0.937500
vt 0.296875 0.000000
vt 0.281250 0.437500
vt 0.281250 0.875000
vt 0.281250 0.375000
vt 0.281250 0.812500
vt 0.281250 0.312500
vt 0.281250 0.750000
vt 0.250000 0.437500
vt 0.250000 0.375000
vt 0.250000 0.875000
vt 0.250000 0.812500
vt 0.250000 0.312500
vt 0.250000 0.750000
vt 0.250000 0.250000
vt 0.250000 0.687500
vt 0.250000 0.187500
vt 0.250000 0.625000
vt 0.250000 0.125000
vt 0.250000 0.562500
vt 0.250000 0.062500
vt 0.250000 0.500000
vt 0.265625 1.000000
vt 0.250000 0.937500
vt 0.265625 0.000000
vt 0.218750 0.187500
vt 0.218750 0.125000
vt 0.218750 0.625000
vt 0.218750 0.562500
vt 0.218750 0.062500
vt 0.218750 0.500000
vt 0.234375 1.000000
vt 0.218750 0.937500
vt 0.234375 0.000000
vt 0.218750 0.437500
vt 0.218750 0.875000
vt 0.218750 0.375000
vt 0.218750 0.812500
vt 0.218750 0.312500
vt 0.218750 0.750000
vt 0.218750 0.250000
vt 0.218750 0.687500
vt 0.187500 0.875000
vt 0.187500 0.812500
vt 0.187500 0.375000
vt 0.187500 0.312500
vt 0.187500 0.750000
vt 0.187500 0.250000
vt 0.187500 0.687500
vt 0.187500 0.187500
vt 0.187500 0.625000
vt 0.187500 0.125000
vt 0.187500 0.562500
vt 0.187500 0.062500
vt 0.187500 0.500000
vt 0.203125 1.000000
vt 0.187500 0.937500
vt 0.203125 0.000000
vt 0.187500 0.437500
vt 0.156250 0.625000
vt 0.156250 0.562500
vt 0.156250 0.125000
vt 0.156250 0.062500
vt 0.156250 0.500000
vt 0.171875 1.000000
vt 0.156250 0.937500
vt 0.171875 0.000000
vt 0.156250 0.437500
vt 0.156250 0.875000
vt 0.156250 0.375000
vt 0.156250 0.812500
vt 0.156250 0.312500
vt 0.156250 0.750000
vt 0.156250 0.250000
vt 0.156250 0.687500
vt 0.156250 0.187500
vt 0.125000 0.375000
vt 0.125000 0.312500
vt 0.125000 0.812500
vt 0.125000 0.750000
vt 0.125000 0.250000
vt 0.125000 0.687500
vt 0.125000 0.187500
vt 0.125000 0.625000
vt 0.125000 0.125000
vt 0.125000 0.562500
vt 0.125000 0.062500
vt 0.125000 0.500000
vt 0.140625 1.000000
vt 0.125000 0.937500
vt 0.140625 0.000000
vt 0.125000 0.437500
vt 0.125000 0.875000
vt 0.093750 0.125000
vt 0.093750 0.062500
vt 0.093750 0.562500
vt 0.093750 0.500000
vt 0.109375 1.000000
vt 0.093750 0.937500
vt 0.109375 0.000000
vt 0.093750 0.437500
vt 0.093750 0.875000
vt 0.093750 0.375000
vt 0.093750 0.812500
vt 0.093750 0.312500
vt 0.093750 0.750000
vt 0.093750 0.250000
vt 0.093750 0.687500
vt 0.093750 0.187500
vt 0.093750 0.625000
vt 0.062500 0.812500
vt 0.062500 0.750000
vt 0.062500 0.312500
vt 0.062500 0.250000
vt 0.062500 0.687500
vt 0.062500 0.187500
vt 0.062500 0.625000
vt 0.062500 0.125000
vt 0.062500 0.562500
vt 0.062500 0.062500
vt 0.062500 0.500000
vt 0.078125 1.000000
vt 0.062500 0.937500
vt 0.078125 0.000000
vt 0.062500 0.437500
vt 0.062500 0.875000
vt 0.062500 0.375000
vt 0.031250 0.562500
vt 0.031250 0.500000
vt 0.046875 1.000000
vt 0.031250 0.937500
vt 0.046875 0.000000
vt 0.031250 0.062500
vt 0.031250 0.437500
vt 0.031250 0.875000
vt 0.031250 0.375000
vt 0.031250 0.812500
vt 0.031250 0.312500
vt 0.031250 0.750000
vt 0.031250 0.250000
vt 0.031250 0.687500
vt 0.031250 0.187500
vt 0.031250 0.625000
vt 0.031250 0.125000
vt 0.000000 0.312500
vt 0.000000 0.250000
vt 0.000000 0.750000
vt 0.000000 0.687500
vt 0.000000 0.187500
vt 0.000000 0.625000
vt 0.000000 0.125000
vt 0.000000 0.562500
vt 0.000000 0.062500
vt 0.000000 0.500000
vt 0.015625 1.000000
vt 0.000000 0.937500
vt 0.015625 0.000000
vt 0.000000 0.437500
vt 0.000000 0.875000
vt 0.000000 0.375000
vt 0.000000 0.812500
vt 0.984375 0.000000
vt 1.000000 0.062500
vt 0.968750 0.062500
vt 1.000000 0.437500
vt 1.000000 0.500000
vt 0.968750 0.500000
vt 0.968750 0.437500
vt 1.000000 0.875000
vt 1.000000 0.937500
vt 0.968750 0.937500
vt 0.968750 0.875000
vt 1.000000 0.375000
vt 0.968750 0.375000
vt 1.000000 0.812500
vt 0.968750 0.812500
vt 1.000000 0.312500
vt 0.968750 0.312500
vt 1.000000 0.750000
vt 0.968750 0.750000
vt 1.000000 0.250000
vt 0.968750 0.250000
vt 1.000000 0.687500
vt 0.968750 0.687500
vt 1.000000 0.187500
vt 0.968750 0.187500
vt 1.000000 0.625000
vt 0.968750 0.625000
vt 1.000000 0.125000
vt 0.968750 0.125000
vt 1.000000 0.562500
vt 0.968750 0.562500
vt 0.984375 1.000000
vt 0.937500 0.250000
vt 0.937500 0.187500
vt 0.937500 0.687500
vt 0.937500 0.625000
vt 0.937500 0.125000
vt 0.937500 0.562500
vt 0.937500 0.062500
vt 0.937500 0.500000
vt 0.953125 1.000000
vt 0.937500 0.937500
vt 0.953125 0.000000
vt 0.937500 0.437500
vt 0.937500 0.875000
vt 0.937500 0.375000
vt 0.937500 0.812500
vt 0.937500 0.312500
vt 0.937500 0.750000
vt 0.906250 0.937500
vt 0.906250 0.875000
vt 0.906250 0.437500
vt 0.906250 0.375000
vt 0.906250 0.812500
vt 0.906250 0.312500
vt 0.906250 0.750000
vt 0.906250 0.250000
vt 0.906250 0.687500
vt 0.906250 0.187500
vt 0.906250 0.625000
vt 0.906250 0.125000
vt 0.906250 0.562500
vt 0.906250 0.062500
vt 0.906250 0.500000
vt 0.921875 1.000000
vt 0.921875 0.000000
vt 0.875000 0.687500
vt 0.875000 0.625000
vt 0.875000 0.187500
vt 0.875000 0.125000
vt 0.875000 0.562500
vt 0.875000 0.062500
vt 0.875000 0.500000
vt 0.890625 1.000000
vt 0.875000 0.937500
vt 0.890625 0.000000
vt 0.875000 0.437500
vt 0.875000 0.875000
vt 0.875000 0.375000
vt 0.875000 0.812500
vt 0.875000 0.312500
vt 0.875000 0.750000
vt 0.875000 0.250000
vt 0.843750 0.437500
vt 0.843750 0.375000
vt 0.843750 0.875000
vt 0.843750 0.812500
vt 0.843750 0.312500
vt 0.843750 0.750000
vt 0.843750 0.250000
vt 0.843750 0.687500
vt 0.843750 0.187500
vt 0.843750 0.625000
vt 0.843750 0.125000
vt 0.843750 0.562500
vt 0.843750 0.062500
vt 0.843750 0.500000
vt 0.859375 1.000000
vt 0.843750 0.937500
vt 0.859375 0.000000
vt 0.812500 0.187500
vt 0.812500 0.125000
vt 0.812500 0.625000
vt 0.812500 0.562500
vt 0.812500 0.062500
vt 0.812500 0.500000
vt 0.828125 1.000000
vt 0.812500 0.937500
vt 0.828125 0.000000
vt 0.812500 0.437500
vt 0.812500 0.875000
vt 0.812500 0.375000
vt 0.812500 0.812500
vt 0.812500 0.312500
vt 0.812500 0.750000
vt 0.812500 0.250000
vt 0.812500 0.687500
vt 0.781250 0.875000
vt 0.781250 0.812500
vt 0.781250 0.375000
vt 0.781250 0.312500
vt 0.781250 0.750000
vt 0.781250 0.250000
vt 0.781250 0.687500
vt 0.781250 0.187500
vt 0.781250 0.625000
vt 0.781250 0.125000
vt 0.781250 0.562500
vt 0.781250 0.062500
vt 0.781250 0.500000
vt 0.796875 1.000000
vt 0.781250 0.937500
vt 0.796875 0.000000
vt 0.781250 0.437500
vt 0.765625 1.000000
vt 0.765625 0.000000
s 1
f 481/1/481 480/2/480 19/3/19 20/4/20
f 3/5/3 477/6/477 12/7/12 13/8/13
f 482/9/482 481/1/481 20/4/20 21/10/21
f 4/11/4 3/5/3 13/8/13 14/12/14
f 474/13/474 82/14/82 7/15/7
f 308/16/308 482/9/482 21/10/21
f 5/17/5 4/11/4 14/12/14 15/18/15
f 475/19/475 474/13/474 7/15/7 8/20/8
f 478/21/478 5/17/5 15/18/15 16/22/16
f 1/23/1 475/19/475 8/20/8 9/24/9
f 6/25/6 478/21/478 16/22/16 17/26/17
f 476/27/476 1/23/1 9/24/9 10/28/10
f 479/29/479 6/25/6 17/26/17 18/30/18
f 2/31/2 476/27/476 10/28/10 11/32/11
f 480/2/480 479/29/479 18/30/18 19/3/19
f 477/6/477 2/31/2 11/32/11 12/7/12
f 19/3/19 18/30/18 33/33/33 34/34/34
f 12/7/12 11/32/11 26/35/26 27/36/27
f 20/4/20 19/3/19 34/34/34 35/37/35
f 13/8/13 12/7/12 27/36/27 28/38/28
f 21/10/21 20/4/20 35/37/35 36/39/36
f 14/12/14 13/8/13 28/38/28 29/40/29
f 7/15/7 82/41/82 22/42/22
f 308/43/308 21/10/21 36/39/36
f 15/18/15 14/12/14 29/40/29 30/44/30
f 8/20/8 7/15/7 22/42/22 23/45/23
f 16/22/16 15/18/15 30/44/30 31/46/31
f 9/24/9 8/20/8 23/45/23 24/47/24
f 17/26/17 16/22/16 31/46/31 32/48/32
f 10/28/10 9/24/9 24/47/24 25/49/25
f 18/30/18 17/26/17 32/48/32 33/33/33
f 11/32/11 10/28/10 25/49/25 26/35/26
f 23/45/23 22/42/22 37/50/37 38/51/38
f 31/46/31 30/44/30 45/52/45 46/53/46
f 24/47/24 23/45/23 38/51/38 39/54/39
f 32/48/32 31/46/31 46/53/46 47/55/47
f 25/49/25 24/47/24 39/54/39 40/56/40
f 33/33/33 32/48/32 47/55/47 48/57/48
f 26/35/26 25/49/25 40/56/40 41/58/41
f 34/34/34 33/33/33 48/57/48 49/59/49
f 27/36/27 26/35/26 41/58/41 42/60/42
f 35/37/35 34/34/34 49/59/49 50/61/50
f 28/38/28 27/36/27 42/60/42 43/62/43
f 36/39/36 35/37/35 50/61/50 51/63/51
f 29/40/29 28/38/28 43/62/43 44/64/44
f 22/42/22 82/65/82 37/50/37
f 308/66/308 36/39/36 51/63/51
f 30/44/30 29/40/29 44/64/44 45/52/45
f 42/60/42 41/58/41 56/67/56 57/68/57
f 50/61/50 49/59/49 64/69/64 65/70/65
f 43/62/43 42/60/42 57/68/57 58/71/58
f 51/63/51 50/61/50 65/70/65 66/72/66
f 44/64/44 43/62/43 58/71/58 59/73/59
f 37/50/37 82/74/82 52/75/52
f 308/76/308 51/63/51 66/72/66
f 45/52/45 44/64/44 59/73/59 60/77/60
f 38/51/38 37/50/37 52/75/52 53/78/53
f 46/53/46 45/52/45 60/77/60 61/79/61
f 39/54/39 38/51/38 53/78/53 54/80/54
f 47/55/47 46/53/46 61/79/61 62/81/62
f 40/56/40 39/54/39 54/80/54 55/82/55
f 48/57/48 47/55/47 62/81/62 63/83/63
f 41/58/41 40/56/40 55/82/55 56/67/56
f 49/59/49 48/57/48 63/83/63 64/69/64
f 61/79/61 60/77/60 75/84/75 76/85/76
f 54/80/54 53/78/53 68/86/68 69/87/69
f 62/81/62 61/79/61 76/85/76 77/88/77
f 55/82/55 54/80/54 69/87/69 70/89/70
f 63/83/63 62/81/62 77/88/77 78/90/78
f 56/67/56 55/82/55 70/89/70 71/91/71
f 64/69/64 63/83/63 78/90/78 79/92/79
f 57/68/57 56/67/56 71/91/71 72/93/72
f 65/70/65 64/69/64 79/92/79 80/94/80
f 58/71/58 57/68/57 72/93/72 73/95/73
f 66/72/66 65/70/65 80/94/80 81/96/81
f 59/73/59 58/71/58 73/95/73 74/97/74
f 52/75/52 82/98/82 67/99/67
f 308/100/308 66/72/66 81/96/81
f 60/77/60 59/73/59 74/97/74 75/84/75
f 53/78/53 52/75/52 67/99/67 68/86/68
f 80/94/80 79/92/79 95/101/95 96/102/96
f 73/95/73 72/93/72 88/103/88 89/104/89
f 81/96/81 80/94/80 96/102/96 97/105/97
f 74/97/74 73/95/73 89/104/89 90/106/90
f 67/99/67 82/107/82 83/108/83
f 308/109/308 81/96/81 97/105/97
f 75/84/75 74/97/74 90/106/90 91/110/91
f 68/86/68 67/99/67 83/108/83 84/111/84
f 76/85/76 75/84/75 91/110/91 92/112/92
f 69/87/69 68/86/68 84/111/84 85/113/85
f 77/88/77 76/85/76 92/112/92 93/114/93
f 70/89/70 69/87/69 85/113/85 86/115/86
f 78/90/78 77/88/77 93/114/93 94/116/94
f 71/91/71 70/89/70 86/115/86 87/117/87
f 79/92/79 78/90/78 94/116/94 95/101/95
f 72/93/72 71/91/71 87/117/87 88/103/88
f 93/114/93 92/112/92 107/118/107 108/119/108
f 86/115/86 85/113/85 100/120/100 101/121/101
f 94/116/94 93/114/93 108/119/108 109/122/109
f 87/117/87 86/115/86 101/121/101 102/123/102
f 95/101/95 94/116/94 109/122/109 110/124/110
f 88/103/88 87/117/87 102/123/102 103/125/103
f 96/102/96 95/101/95 110/124/110 111/126/111
f 89/104/89 88/103/88 103/125/103 104/127/104
f 97/105/97 96/102/96 111/126/111 112/128/112
f 90/106/90 89/104/89 104/127/104 105/129/105
f 83/108/83 82/130/82 98/131/98
f 308/132/308 97/105/97 112/128/112
f 91/110/91 90/106/90 105/129/105 106/133/106
f 84/111/84 83/108/83 98/131/98 99/134/99
f 92/112/92 91/110/91 106/133/106 107/118/107
f 85/113/85 84/111/84 99/134/99 100/120/100
f 112/128/112 111/126/111 126/135/126 127/136/127
f 105/129/105 104/127/104 119/137/119 120/138/120
f 98/131/98 82/139/82 113/140/113
f 308/141/308 112/128/112 127/136/127
f 106/133/106 105/129/105 120/138/120 121/142/121
f 99/134/99 98/131/98 113/140/113 114/143/114
f 107/118/107 106/133/106 121/142/121 122/144/122
f 100/120/100 99/134/99 114/143/114 115/145/115
f 108/119/108 107/118/107 122/144/122 123/146/123
f 101/121/101 100/120/100 115/145/115 116/147/116
f 109/122/109 108/119/108 123/146/123 124/148/124
f 102/123/102 101/121/101 116/147/116 117/149/117
f 110/124/110 109/122/109 124/148/124 125/150/125
f 103/125/103 102/123/102 117/149/117 118/151/118
f 111/126/111 110/124/110 125/150/125 126/135/126
f 104/127/104 103/125/103 118/151/118 119/137/119
f 116/147/116 115/145/115 130/152/130 131/153/131
f 124/148/124 123/146/123 138/154/138 139/155/139
f 117/149/117 116/147/116 131/153/131 132/156/132
f 125/150/125 124/148/124 139/155/139 140/157/140
f 118/151/118 117/149/117 132/156/132 133/158/133
f 126/135/126 125/150/125 140/157/140 141/159/141
f 119/137/119 118/151/118 133/158/133 134/160/134
f 127/136/127 126/135/126 141/159/141 142/161/142
f 120/138/120 119/137/119 134/160/134 135/162/135
f 113/140/113 82/163/82 128/164/128
f 308/165/308 127/136/127 142/161/142
f 121/142/121 120/138/120 135/162/135 136/166/136
f 114/143/114 113/140/113 128/164/128 129/167/129
f 122/144/122 121/142/121 136/166/136 137/168/137
f 115/145/115 114/143/114 129/167/129 130/152/130
f 123/146/123 122/144/122 137/168/137 138/154/138
f 135/162/135 134/160/134 149/169/149 150/170/150
f 128/164/128 82/171/82 143/172/143
f 308/173/308 142/161/142 157/174/157
f 136/166/136 135/162/135 150/170/150 151/175/151
f 129/167/129 128/164/128 143/172/143 144/176/144
f 137/168/137 136/166/136 151/175/151 152/177/152
f 130/152/130 129/167/129 144/176/144 145/178/145
f 138/154/138 137/168/137 152/177/152 153/179/153
f 131/153/131 130/152/130 145/178/145 146/180/146
f 139/155/139 138/154/138 153/179/153 154/181/154
f 132/156/132 131/153/131 146/180/146 147/182/147
f 140/157/140 139/155/139 154/181/154 155/183/155
f 133/158/133 132/156/132 147/182/147 148/184/148
f 141/159/141 140/157/140 155/183/155 156/185/156
f 134/160/134 133/158/133 148/184/148 149/169/149
f 142/161/142 141/159/141 156/185/156 157/174/157
f 154/181/154 153/179/153 168/186/168 169/187/169
f 147/182/147 146/180/146 161/188/161 162/189/162
f 155/183/155 154/181/154 169/187/169 170/190/170
f 148/184/148 147/182/147 162/189/162 163/191/163
f 156/185/156 155/183/155 170/190/170 171/192/171
f 149/169/149 148/184/148 163/191/163 164/193/164
f 157/174/157 156/185/156 171/192/171 172/194/172
f 150/170/150 149/169/149 164/193/164 165/195/165
f 143/172/143 82/196/82 158/197/158
f 308/198/308 157/174/157 172/194/172
f 151/175/151 150/170/150 165/195/165 166/199/166
f 144/176/144 143/172/143 158/197/158 159/200/159
f 152/177/152 151/175/151 166/199/166 167/201/167
f 145/178/145 144/176/144 159/200/159 160/202/160
f 153/179/153 152/177/152 167/201/167 168/186/168
f 146/180/146 145/178/145 160/202/160 161/188/161
f 158/197/158 82/203/82 173/204/173
f 308/205/308 172/194/172 187/206/187
f 166/199/166 165/195/165 180/207/180 181/208/181
f 159/200/159 158/197/158 173/204/173 174/209/174
f 167/201/167 166/199/166 181/208/181 182/210/182
f 160/202/160 159/200/159 174/209/174 175/211/175
f 168/186/168 167/201/167 182/210/182 183/212/183
f 161/188/161 160/202/160 175/211/175 176/213/176
f 169/187/169 168/186/168 183/212/183 184/214/184
f 162/189/162 161/188/161 176/213/176 177/215/177
f 170/190/170 169/187/169 184/214/184 185/216/185
f 163/191/163 162/189/162 177/215/177 178/217/178
f 171/192/171 170/190/170 185/216/185 186/218/186
f 164/193/164 163/191/163 178/217/178 179/219/179
f 172/194/172 171/192/171 186/218/186 187/206/187
f 165/195/165 164/193/164 179/219/179 180/207/180
f 177/215/177 176/213/176 191/220/191 192/221/192
f 185/216/185 184/214/184 199/222/199 200/223/200
f 178/217/178 177/215/177 192/221/192 193/224/193
f 186/218/186 185/216/185 200/223/200 201/225/201
f 179/219/179 178/217/178 193/224/193 194/226/194
f 187/206/187 186/218/186 201/225/201 202/227/202
f 180/207/180 179/219/179 194/226/194 195/228/195
f 173/204/173 82/229/82 188/230/188
f 308/231/308 187/206/187 202/227/202
f 181/208/181 180/207/180 195/228/195 196/232/196
f 174/209/174 173/204/173 188/230/188 189/233/189
f 182/210/182 181/208/181 196/232/196 197/234/197
f 175/211/175 174/209/174 189/233/189 190/235/190
f 183/212/183 182/210/182 197/234/197 198/236/198
f 176/213/176 175/211/175 190/235/190 191/220/191
f 184/214/184 183/212/183 198/236/198 199/222/199
f 196/232/196 195/228/195 210/237/210 211/238/211
f 189/233/189 188/230/188 203/239/203 204/240/204
f 197/234/197 196/232/196 211/238/211 212/241/212
f 190/235/190 189/233/189 204/240/204 205/242/205
f 198/236/198 197/234/197 212/241/212 213/243/213
f 191/220/191 190/235/190 205/242/205 206/244/206
f 199/222/199 198/236/198 213/243/213 214/245/214
f 192/221/192 191/220/191 206/244/206 207/246/207
f 200/223/200 199/222/199 214/245/214 215/247/215
f 193/224/193 192/221/192 207/246/207 208/248/208
f 201/225/201 200/223/200 215/247/215 216/249/216
f 194/226/194 193/224/193 208/248/208 209/250/209
f 202/227/202 201/225/201 216/249/216 217/251/217
f 195/228/195 194/226/194 209/250/209 210/237/210
f 188/230/188 82/252/82 203/239/203
f 308/253/308 202/227/202 217/251/217
f 215/247/215 214/245/214 229/254/229 230/255/230
f 208/248/208 207/246/207 222/256/222 223/257/223
f 216/249/216 215/247/215 230/255/230 231/258/231
f 209/250/209 208/248/208 223/257/223 224/259/224
f 217/251/217 216/249/216 231/258/231 232/260/232
f 210/237/210 209/250/209 224/259/224 225/261/225
f 203/239/203 82/262/82 218/263/218
f 308/264/308 217/251/217 232/260/232
f 211/238/211 210/237/210 225/261/225 226/265/226
f 204/240/204 203/239/203 218/263/218 219/266/219
f 212/241/212 211/238/211 226/265/226 227/267/227
f 205/242/205 204/240/204 219/266/219 220/268/220
f 213/243/213 212/241/212 227/267/227 228/269/228
f 206/244/206 205/242/205 220/268/220 221/270/221
f 214/245/214 213/243/213 228/269/228 229/254/229
f 207/246/207 206/244/206 221/270/221 222/256/222
f 227/267/227 226/265/226 241/271/241 242/272/242
f 220/268/220 219/266/219 234/273/234 235/274/235
f 228/269/228 227/267/227 242/272/242 243/275/243
f 221/270/221 220/268/220 235/274/235 236/276/236
f 229/254/229 228/269/228 243/275/243 244/277/244
f 222/256/222 221/270/221 236/276/236 237/278/237
f 230/255/230 229/254/229 244/277/244 245/279/245
f 223/257/223 222/256/222 237/278/237 238/280/238
f 231/258/231 230/255/230 245/279/245 246/281/246
f 224/259/224 223/257/223 238/280/238 239/282/239
f 232/260/232 231/258/231 246/281/246 247/283/247
f 225/261/225 224/259/224 239/282/239 240/284/240
f 218/263/218 82/285/82 233/286/233
f 308/287/308 232/260/232 247/283/247
f 226/265/226 225/261/225 240/284/240 241/271/241
f 219/266/219 218/263/218 233/286/233 234/273/234
f 246/281/246 245/279/245 260/288/260 261/289/261
f 239/282/239 238/280/238 253/290/253 254/291/254
f 247/283/247 246/281/246 261/289/261 262/292/262
f 240/284/240 239/282/239 254/291/254 255/293/255
f 233/286/233 82/294/82 248/295/248
f 308/296/308 247/283/247 262/292/262
f 241/271/241 240/284/240 255/293/255 256/297/256
f 234/273/234 233/286/233 248/295/248 249/298/249
f 242/272/242 241/271/241 256/297/256 257/299/257
f 235/274/235 234/273/234 249/298/249 250/300/250
f 243/275/243 242/272/242 257/299/257 258/301/258
f 236/276/236 235/274/235 250/300/250 251/302/251
f 244/277/244 243/275/243 258/301/258 259/303/259
f 237/278/237 236/276/236 251/302/251 252/304/252
f 245/279/245 244/277/244 259/303/259 260/288/260
f 238/280/238 237/278/237 252/304/252 253/290/253
f 250/300/250 249/298/249 264/305/264 265/306/265
f 258/301/258 257/299/257 272/307/272 273/308/273
f 251/302/251 250/300/250 265/306/265 266/309/266
f 259/303/259 258/301/258 273/308/273 274/310/274
f 252/304/252 251/302/251 266/309/266 267/311/267
f 260/288/260 259/303/259 274/310/274 275/312/275
f 253/290/253 252/304/252 267/311/267 268/313/268
f 261/289/261 260/288/260 275/312/275 276/314/276
f 254/291/254 253/290/253 268/313/268 269/315/269
f 262/292/262 261/289/261 276/314/276 277/316/277
f 255/293/255 254/291/254 269/315/269 270/317/270
f 248/295/248 82/318/82 263/319/263
f 308/320/308 262/292/262 277/316/277
f 256/297/256 255/293/255 270/317/270 271/321/271
f 249/298/249 248/295/248 263/319/263 264/305/264
f 257/299/257 256/297/256 271/321/271 272/307/272
f 269/315/269 268/313/268 283/322/283 284/323/284
f 277/316/277 276/314/276 291/324/291 292/325/292
f 270/317/270 269/315/269 284/323/284 285/326/285
f 263/319/263 82/327/82 278/328/278
f 308/329/308 277/316/277 292/325/292
f 271/321/271 270/317/270 285/326/285 286/330/286
f 264/305/264 263/319/263 278/328/278 279/331/279
f 272/307/272 271/321/271 286/330/286 287/332/287
f 265/306/265 264/305/264 279/331/279 280/333/280
f 273/308/273 272/307/272 287/332/287 288/334/288
f 266/309/266 265/306/265 280/333/280 281/335/281
f 274/310/274 273/308/273 288/334/288 289/336/289
f 267/311/267 266/309/266 281/335/281 282/337/282
f 275/312/275 274/310/274 289/336/289 290/338/290
f 268/313/268 267/311/267 282/337/282 283/322/283
f 276/314/276 275/312/275 290/338/290 291/324/291
f 288/334/288 287/332/287 302/339/302 303/340/303
f 281/335/281 280/333/280 295/341/295 296/342/296
f 289/336/289 288/334/288 303/340/303 304/343/304
f 282/337/282 281/335/281 296/342/296 297/344/297
f 290/338/290 289/336/289 304/343/304 305/345/305
f 283/322/283 282/337/282 297/344/297 298/346/298
f 291/324/291 290/338/290 305/345/305 306/347/306
f 284/323/284 283/322/283 298/346/298 299/348/299
f 292/325/292 291/324/291 306/347/306 307/349/307
f 285/326/285 284/323/284 299/348/299 300/350/300
f 278/328/278 82/351/82 293/352/293
f 308/353/308 292/325/292 307/349/307
f 286/330/286 285/326/285 300/350/300 301/354/301
f 279/331/279 278/328/278 293/352/293 294/355/294
f 287/332/287 286/330/286 301/354/301 302/339/302
f 280/333/280 279/331/279 294/355/294 295/341/295
f 307/349/307 306/347/306 322/356/322 323/357/323
f 300/350/300 299/348/299 315/358/315 316/359/316
f 293/352/293 82/360/82 309/361/309
f 308/362/308 307/349/307 323/357/323
f 301/354/301 300/350/300 316/359/316 317/363/317
f 294/355/294 293/352/293 309/361/309 310/364/310
f 302/339/302 301/354/301 317/363/317 318/365/318
f 295/341/295 294/355/294 310/364/310 311/366/311
f 303/340/303 302/339/302 318/365/318 319/367/319
f 296/342/296 295/341/295 311/366/311 312/368/312
f 304/343/304 303/340/303 319/367/319 320/369/320
f 297/344/297 296/342/296 312/368/312 313/370/313
f 305/345/305 304/343/304 320/369/320 321/371/321
f 298/346/298 297/344/297 313/370/313 314/372/314
f 306/347/306 305/345/305 321/371/321 322/356/322
f 299/348/299 298/346/298 314/372/314 315/358/315
f 312/368/312 311/366/311 326/373/326 327/374/327
f 320/369/320 319/367/319 334/375/334 335/376/335
f 313/370/313 312/368/312 327/374/327 328/377/328
f 321/371/321 320/369/320 335/376/335 336/378/336
f 314/372/314 313/370/313 328/377/328 329/379/329
f 322/356/322 321/371/321 336/378/336 337/380/337
f 315/358/315 314/372/314 329/379/329 330/381/330
f 323/357/323 322/356/322 337/380/337 338/382/338
f 316/359/316 315/358/315 330/381/330 331/383/331
f 309/361/309 82/384/82 324/385/324
f 308/386/308 323/357/323 338/382/338
f 317/363/317 316/359/316 331/383/331 332/387/332
f 310/364/310 309/361/309 324/385/324 325/388/325
f 318/365/318 317/363/317 332/387/332 333/389/333
f 311/366/311 310/364/310 325/388/325 326/373/326
f 319/367/319 318/365/318 333/389/333 334/375/334
f 331/383/331 330/381/330 345/390/345 346/391/346
f 324/385/324 82/392/82 339/393/339
f 308/394/308 338/382/338 353/395/353
f 332/387/332 331/383/331 346/391/346 347/396/347
f 325/388/325 324/385/324 339/393/339 340/397/340
f 333/389/333 332/387/332 347/396/347 348/398/348
f 326/373/326 325/388/325 340/397/340 341/399/341
f 334/375/334 333/389/333 348/398/348 349/400/349
f 327/374/327 326/373/326 341/399/341 342/401/342
f 335/376/335 334/375/334 349/400/349 350/402/350
f 328/377/328 327/374/327 342/401/342 343/403/343
f 336/378/336 335/376/335 350/402/350 351/404/351
f 329/379/329 328/377/328 343/403/343 344/405/344
f 337/380/337 336/378/336 351/404/351 352/406/352
f 330/381/330 329/379/329 344/405/344 345/390/345
f 338/382/338 337/380/337 352/406/352 353/395/353
f 350/402/350 349/400/349 364/407/364 365/408/365
f 343/403/343 342/401/342 357/409/357 358/410/358
f 351/404/351 350/402/350 365/408/365 366/411/366
f 344/405/344 343/403/343 358/410/358 359/412/359
f 352/406/352 351/404/351 366/411/366 367/413/367
f 345/390/345 344/405/344 359/412/359 360/414/360
f 353/395/353 352/406/352 367/413/367 368/415/368
f 346/391/346 345/390/345 360/414/360 361/416/361
f 339/393/339 82/417/82 354/418/354
f 308/419/308 353/395/353 368/415/368
f 347/396/347 346/391/346 361/416/361 362/420/362
f 340/397/340 339/393/339 354/418/354 355/421/355
f 348/398/348 347/396/347 362/420/362 363/422/363
f 341/399/341 340/397/340 355/421/355 356/423/356
f 349/400/349 348/398/348 363/422/363 364/407/364
f 342/401/342 341/399/341 356/423/356 357/409/357
f 308/424/308 368/425/368 383/426/383
f 362/427/362 361/428/361 376/429/376 377/430/377
f 355/431/355 354/432/354 369/433/369 370/434/370
f 363/435/363 362/427/362 377/430/377 378/436/378
f 356/437/356 355/431/355 370/434/370 371/438/371
f 364/439/364 363/435/363 378/436/378 379/440/379
f 357/441/357 356/437/356 371/438/371 372/442/372
f 365/443/365 364/439/364 379/440/379 380/444/380
f 358/445/358 357/441/357 372/442/372 373/446/373
f 366/447/366 365/443/365 380/444/380 381/448/381
f 359/449/359 358/445/358 373/446/373 374/450/374
f 367/451/367 366/447/366 381/448/381 382/452/382
f 360/453/360 359/449/359 374/450/374 375/454/375
f 368/425/368 367/451/367 382/452/382 383/426/383
f 361/428/361 360/453/360 375/454/375 376/429/376
f 354/432/354 82/455/82 369/433/369
f 381/448/381 380/444/380 395/456/395 396/457/396
f 374/450/374 373/446/373 388/458/388 389/459/389
f 382/452/382 381/448/381 396/457/396 397/460/397
f 375/454/375 374/450/374 389/459/389 390/461/390
f 383/426/383 382/452/382 397/460/397 398/462/398
f 376/429/376 375/454/375 390/461/390 391/463/391
f 369/433/369 82/464/82 384/465/384
f 308/466/308 383/426/383 398/462/398
f 377/430/377 376/429/376 391/463/391 392/467/392
f 370/434/370 369/433/369 384/465/384 385/468/385
f 378/436/378 377/430/377 392/467/392 393/469/393
f 371/438/371 370/434/370 385/468/385 386/470/386
f 379/440/379 378/436/378 393/469/393 394/471/394
f 372/442/372 371/438/371 386/470/386 387/472/387
f 380/444/380 379/440/379 394/471/394 395/456/395
f 373/446/373 372/442/372 387/472/387 388/458/388
f 385/468/385 384/465/384 399/473/399 400/474/400
f 393/469/393 392/467/392 407/475/407 408/476/408
f 386/470/386 385/468/385 400/474/400 401/477/401
f 394/471/394 393/469/393 408/476/408 409/478/409
f 387/472/387 386/470/386 401/477/401 402/479/402
f 395/456/395 394/471/394 409/478/409 410/480/410
f 388/458/388 387/472/387 402/479/402 403/481/403
f 396/457/396 395/456/395 410/480/410 411/482/411
f 389/459/389 388/458/388 403/481/403 404/483/404
f 397/460/397 396/457/396 411/482/411 412/484/412
f 390/461/390 389/459/389 404/483/404 405/485/405
f 398/462/398 397/460/397 412/484/412 413/486/413
f 391/463/391 390/461/390 405/485/405 406/487/406
f 384/465/384 82/488/82 399/473/399
f 308/489/308 398/462/398 413/486/413
f 392/467/392 391/463/391 406/487/406 407/475/407
f 404/483/404 403/481/403 418/490/418 419/491/419
f 412/484/412 411/482/411 426/492/426 427/493/427
f 405/485/405 404/483/404 419/491/419 420/494/420
f 413/486/413 412/484/412 427/493/427 428/495/428
f 406/487/406 405/485/405 420/494/420 421/496/421
f 399/473/399 82/497/82 414/498/414
f 308/499/308 413/486/413 428/495/428
f 407/475/407 406/487/406 421/496/421 422/500/422
f 400/474/400 399/473/399 414/498/414 415/501/415
f 408/476/408 407/475/407 422/500/422 423/502/423
f 401/477/401 400/474/400 415/501/415 416/503/416
f 409/478/409 408/476/408 423/502/423 424/504/424
f 402/479/402 401/477/401 416/503/416 417/505/417
f 410/480/410 409/478/409 424/504/424 425/506/425
f 403/481/403 402/479/402 417/505/417 418/490/418
f 411/482/411 410/480/410 425/506/425 426/492/426
f 423/502/423 422/500/422 437/507/437 438/508/438
f 416/503/416 415/501/415 430/509/430 431/510/431
f 424/504/424 423/502/423 438/508/438 439/511/439
f 417/505/417 416/503/416 431/510/431 432/512/432
f 425/506/425 424/504/424 439/511/439 440/513/440
f 418/490/418 417/505/417 432/512/432 433/514/433
f 426/492/426 425/506/425 440/513/440 441/515/441
f 419/491/419 418/490/418 433/514/433 434/516/434
f 427/493/427 426/492/426 441/515/441 442/517/442
f 420/494/420 419/491/419 434/516/434 435/518/435
f 428/495/428 427/493/427 442/517/442 443/519/443
f 421/496/421 420/494/420 435/518/435 436/520/436
f 414/498/414 82/521/82 429/522/429
f 308/523/308 428/495/428 443/519/443
f 422/500/422 421/496/421 436/520/436 437/507/437
f 415/501/415 414/498/414 429/522/429 430/509/430
f 442/517/442 441/515/441 456/524/456 457/525/457
f 435/518/435 434/516/434 449/526/449 450/527/450
f 443/519/443 442/517/442 457/525/457 458/528/458
f 436/520/436 435/518/435 450/527/450 451/529/451
f 429/522/429 82/530/82 444/531/444
f 308/532/308 443/519/443 458/528/458
f 437/507/437 436/520/436 451/529/451 452/533/452
f 430/509/430 429/522/429 444/531/444 445/534/445
f 438/508/438 437/507/437 452/533/452 453/535/453
f 431/510/431 430/509/430 445/534/445 446/536/446
f 439/511/439 438/508/438 453/535/453 454/537/454
f 432/512/432 431/510/431 446/536/446 447/538/447
f 440/513/440 439/511/439 454/537/454 455/539/455
f 433/514/433 432/512/432 447/538/447 448/540/448
f 441/515/441 440/513/440 455/539/455 456/524/456
f 434/516/434 433/514/433 448/540/448 449/526/449
f 446/536/446 445/534/445 460/541/460 461/542/461
f 454/537/454 453/535/453 468/543/468 469/544/469
f 447/538/447 446/536/446 461/542/461 462/545/462
f 455/539/455 454/537/454 469/544/469 470/546/470
f 448/540/448 447/538/447 462/545/462 463/547/463
f 456/524/456 455/539/455 470/546/470 471/548/471
f 449/526/449 448/540/448 463/547/463 464/549/464
f 457/525/457 456/524/456 471/548/471 472/550/472
f 450/527/450 449/526/449 464/549/464 465/551/465
f 458/528/458 457/525/457 472/550/472 473/552/473
f 451/529/451 450/527/450 465/551/465 466/553/466
f 444/531/444 82/554/82 459/555/459
f 308/556/308 458/528/458 473/552/473
f 452/533/452 451/529/451 466/553/466 467/557/467
f 445/534/445 444/531/444 459/555/459 460/541/460
f 453/535/453 452/533/452 467/557/467 468/543/468
f 465/551/465 464/549/464 477/6/477 3/5/3
f 473/552/473 472/550/472 481/1/481 482/9/482
f 466/553/466 465/551/465 3/5/3 4/11/4
f 459/555/459 82/558/82 474/13/474
f 308/559/308 473/552/473 482/9/482
f 467/557/467 466/553/466 4/11/4 5/17/5
f 460/541/460 459/555/459 474/13/474 475/19/475
f 468/543/468 467/557/467 5/17/5 478/21/478
f 461/542/461 460/541/460 475/19/475 1/23/1
f 469/544/469 468/543/468 478/21/478 6/25/6
f 462/545/462 461/542/461 1/23/1 476/27/476
f 470/546/470 469/544/469 6/25/6 479/29/479
f 463/547/463 462/545/462 476/27/476 2/31/2
f 471/548/471 470/546/470 479/29/479 480/2/480
f 464/549/464 463/547/463 2/31/2 477/6/477
f 472/550/472 471/548/471 480/2/480 481/1/481
